<svg id="Graphic" xmlns="http://www.w3.org/2000/svg" viewBox="0 0 1028 768"><defs><style>.cls-1{fill:#e8e1da;}.cls-1,.cls-2,.cls-3,.cls-4,.cls-5{stroke:#000;stroke-miterlimit:10;stroke-width:5px;}.cls-2{fill:#f19935;}.cls-3{fill:#425054;}.cls-4{fill:#1eb2c3;}.cls-5{fill:#e43b62;}</style></defs><polygon class="cls-1" points="696.62 270.62 480.31 395.05 480.39 263.77 696.7 139.34 696.62 270.62"/><polygon class="cls-1" points="367.38 333.75 478.64 395.15 478.6 263.9 367.33 202.49 367.38 333.75"/><polygon class="cls-1" points="695.7 137.05 479.51 263.05 368.88 200.71 588.98 76.66 695.7 137.05"/><polygon class="cls-2" points="232.65 413.41 448.96 537.84 448.88 406.56 232.57 282.13 232.65 413.41"/><polygon class="cls-2" points="561.9 476.54 450.63 537.94 450.67 406.69 561.94 345.28 561.9 476.54"/><polygon class="cls-2" points="233.57 279.84 449.76 405.84 560.4 343.5 340.3 219.45 233.57 279.84"/><polygon class="cls-3" points="319.67 485.96 208.4 547.36 208.44 416.11 319.71 354.7 319.67 485.96"/><polygon class="cls-3" points="95.46 486.02 206.73 547.42 206.69 416.17 95.42 354.77 95.46 486.02"/><polygon class="cls-3" points="317.5 351.5 206.94 414.2 97.5 351.5 205.58 294.63 317.5 351.5"/><polygon class="cls-4" points="932.76 397.4 821.49 458.81 821.53 327.56 932.8 266.15 932.76 397.4"/><polygon class="cls-4" points="708.56 397.46 819.83 458.87 819.78 327.62 708.51 266.21 708.56 397.46"/><polygon class="cls-4" points="931.51 263.93 820.03 325.64 710.06 264.43 818.67 206.07 931.51 263.93"/><polygon class="cls-2" points="797.99 490.59 686.72 552 686.76 420.74 798.03 359.34 797.99 490.59"/><polygon class="cls-2" points="573.78 490.65 685.05 552.06 685.01 420.81 573.74 359.4 573.78 490.65"/><polygon class="cls-2" points="796.73 357.12 685.26 418.83 575.28 357.62 683.9 299.26 796.73 357.12"/><polygon class="cls-5" points="666.29 567.47 449.98 691.89 450.06 560.62 666.37 436.19 666.29 567.47"/><polygon class="cls-5" points="337.04 630.6 448.31 692 448.27 560.75 337 499.34 337.04 630.6"/><polygon class="cls-5" points="665.37 433.9 449.18 559.9 338.54 497.56 558.64 373.5 665.37 433.9"/></svg>