<svg xmlns="http://www.w3.org/2000/svg" viewBox="0 0 1386.15 1386.15"><defs><style>.cls-1{fill:#e8e1da;}.cls-1,.cls-2,.cls-3,.cls-4,.cls-5{stroke:#000;stroke-miterlimit:10;stroke-width:5px;}.cls-2{fill:#f19935;}.cls-3{fill:#425054;}.cls-4{fill:#1eb2c3;}.cls-5{fill:#e43b62;}.cls-6{font-size:180px;font-family:VisueltPro-Regular, Visuelt Pro;letter-spacing:0.07em;}.cls-7{letter-spacing:0.05em;}.cls-8{letter-spacing:0.05em;}</style></defs><g id="Square"><polygon class="cls-1" points="883.62 507.97 667.31 632.39 667.39 501.12 883.7 376.69 883.62 507.97"/><polygon class="cls-1" points="554.37 571.09 665.64 632.5 665.6 501.25 554.33 439.84 554.37 571.09"/><polygon class="cls-1" points="882.7 374.39 666.51 500.4 555.87 438.06 775.98 314 882.7 374.39"/><polygon class="cls-2" points="419.65 650.76 635.96 775.18 635.88 643.91 419.57 519.48 419.65 650.76"/><polygon class="cls-2" points="748.9 713.88 637.63 775.29 637.67 644.03 748.94 582.63 748.9 713.88"/><polygon class="cls-2" points="420.57 517.18 636.76 643.19 747.4 580.85 527.3 456.79 420.57 517.18"/><polygon class="cls-3" points="506.67 723.3 395.4 784.71 395.44 653.46 506.71 592.05 506.67 723.3"/><polygon class="cls-3" points="282.46 723.37 393.73 784.77 393.69 653.52 282.42 592.11 282.46 723.37"/><polygon class="cls-3" points="504.5 588.85 393.94 651.54 284.5 588.85 392.57 531.97 504.5 588.85"/><polygon class="cls-4" points="1119.76 634.75 1008.49 696.15 1008.53 564.9 1119.8 503.5 1119.76 634.75"/><polygon class="cls-4" points="895.56 634.81 1006.83 696.22 1006.78 564.96 895.51 503.56 895.56 634.81"/><polygon class="cls-4" points="1118.51 501.27 1007.03 562.99 897.06 501.78 1005.67 443.42 1118.51 501.27"/><polygon class="cls-2" points="984.99 727.94 873.72 789.34 873.76 658.09 985.03 596.69 984.99 727.94"/><polygon class="cls-2" points="760.78 728 872.05 789.4 872.01 658.15 760.74 596.75 760.78 728"/><polygon class="cls-2" points="983.73 594.46 872.26 656.18 762.28 594.97 870.89 536.61 983.73 594.46"/><polygon class="cls-5" points="853.29 804.82 636.98 929.24 637.06 797.97 853.37 673.54 853.29 804.82"/><polygon class="cls-5" points="524.04 867.94 635.31 929.35 635.27 798.1 524 736.69 524.04 867.94"/><polygon class="cls-5" points="852.37 671.25 636.18 797.25 525.54 734.91 745.64 610.85 852.37 671.25"/><text class="cls-6" transform="translate(247.51 1114.32)">Hori<tspan class="cls-7" x="380.87" y="0">z</tspan><tspan x="469.25" y="0">o</tspan><tspan class="cls-8" x="588.77" y="0">n</tspan><tspan x="698.21" y="0">tal</tspan></text></g></svg>